# xmcd
#
# Track frame offsets:
#	150
#	17059
#	29140
#	36686
#	46762
#	57344
#	69154
#	80959
#	90181
#	96952
#	109159
#	118854
#	126193
#	141537
#	152117
#	165136
#	179815
#	194423
#	206357
#	219485
#
# Disc length: 3070 seconds
#
# Revision: 1
# Processed by: cddbd v1.5.2PL0 Copyright (c) Steve Scherf et al.
# Submitted via: EasyCDDAExtractor 9.1.1.2
#
DISCID=270bfc14
DTITLE=Frank Sinatra - Frank Sinatra Portrait - 24 Carat Gold Edition - Disc 4
DTITLE=Various Artist - I'll Be Around
DYEAR=1900
DGENRE=Blues
TTITLE0=I Only Have Eyes For You
TTITLE1=The Way You Look Tonight
TTITLE2=I'll Be Around
TTITLE3=She's Funny That Way
TTITLE4=Speak Low
TTITLE5=Long Ago And Far Away
TTITLE6=Some Other Time
TTITLE7=Come Out, Come Out, Wherever You Are
TTITLE8=Put Your Dreams Away
TTITLE9=Let Me Love You Tonight
TTITLE10=Aren't You Glad You're You
TTITLE11=You Brought A New Kind Of Love To Me
TTITLE12=I'll Never Smile Again
TTITLE13=Without A Song
TTITLE14=Oh! What It Seemed To Be 
TTITLE15=Over The Rainbow
TTITLE16=My Romance
TTITLE17=They Say It's Wonderful
TTITLE18=You Are Too Beautiful
TTITLE19=Come Rain Or Come Shine
EXTD=
EXTT0=
EXTT1=
EXTT2=
EXTT3=
EXTT4=
EXTT5=
EXTT6=
EXTT7=
EXTT8=
EXTT9=
EXTT10=
EXTT11=
EXTT12=
EXTT13=
EXTT14=
EXTT15=
EXTT16=
EXTT17=
EXTT18=
EXTT19=
PLAYORDER=
